<?xml version="1.0" standalone="no"?>
<!DOCTYPE svg PUBLIC "-//W3C//DTD SVG 20010904//EN"
 "http://www.w3.org/TR/2001/REC-SVG-20010904/DTD/svg10.dtd">
<svg version="1.0" xmlns="http://www.w3.org/2000/svg"
 width="512.000000pt" height="512.000000pt" viewBox="0 0 512.000000 512.000000"
 preserveAspectRatio="xMidYMid meet">

<g transform="translate(0.000000,512.000000) scale(0.100000,-0.100000)"
fill='white' stroke="none">
<path d="M2315 5109 c-798 -81 -1501 -518 -1927 -1196 -487 -774 -516 -1777
-75 -2578 117 -213 253 -395 430 -574 407 -411 905 -658 1502 -743 117 -16
512 -17 630 0 629 88 1153 360 1576 819 350 380 573 863 651 1408 17 118 17
512 0 630 -59 416 -191 769 -410 1099 -92 140 -185 254 -315 385 -399 403
-894 653 -1462 737 -122 18 -477 26 -600 13z m538 -275 c575 -69 1131 -381
1497 -840 261 -327 431 -727 485 -1139 20 -156 20 -434 0 -590 -134 -1030
-950 -1846 -1980 -1980 -300 -39 -655 -11 -947 76 -538 160 -1004 517 -1300
995 -199 322 -318 700 -336 1070 -17 325 22 602 124 894 52 150 77 196 114
209 44 15 92 -6 109 -48 12 -28 10 -41 -32 -153 -56 -150 -80 -233 -106 -363
-58 -292 -50 -623 23 -913 195 -769 780 -1355 1545 -1547 182 -45 303 -59 511
-59 257 0 449 31 685 110 599 201 1104 699 1309 1293 88 254 120 444 120 711
0 346 -68 640 -218 940 -248 498 -674 876 -1187 1055 -496 172 -984 165 -1483
-24 -68 -25 -118 -39 -130 -35 -41 12 -66 45 -66 86 0 62 21 76 215 144 336
118 674 153 1048 108z m-1748 -609 c17 -16 25 -35 25 -59 0 -32 -13 -50 -111
-155 -61 -66 -122 -122 -135 -125 -52 -13 -104 32 -104 91 0 27 14 49 79 121
113 126 145 152 187 152 24 0 43 -8 59 -25z m1535 -805 c119 -61 127 -240 10
-240 -41 0 -62 13 -82 52 l-13 27 -437 -347 c-240 -191 -437 -349 -437 -352 0
-4 776 -632 844 -683 25 -18 25 -18 34 6 13 33 48 57 84 57 89 0 120 -102 57
-189 -46 -65 -157 -91 -226 -53 -17 9 -234 181 -483 382 -478 386 -491 399
-491 480 0 77 25 104 306 330 147 118 351 283 454 366 103 84 200 159 216 168
41 22 117 20 164 -4z m905 -14 c20 -16 46 -47 56 -70 18 -39 19 -79 19 -776 0
-693 -1 -737 -19 -775 -21 -46 -54 -79 -94 -94 -43 -16 -109 -13 -147 7 -45
23 -911 722 -939 758 -54 68 -47 158 17 225 52 53 890 728 927 745 49 23 136
13 180 -20z m926 -785 c27 -28 29 -34 29 -113 0 -161 -38 -380 -97 -558 -58
-178 -210 -467 -282 -539 -31 -31 -91 -28 -121 4 -39 42 -32 78 39 185 166
250 258 530 281 849 5 78 15 150 22 161 29 46 88 51 129 11z m-708 -1451 c30
-24 40 -60 27 -94 -19 -51 -289 -230 -347 -230 -44 0 -83 37 -83 80 0 51 8 62
79 103 36 22 104 66 151 100 94 67 129 75 173 41z m-704 -346 c41 -34 43 -89
6 -124 -40 -37 -285 -80 -460 -80 -71 0 -79 2 -106 29 -31 31 -36 55 -18 94
18 39 43 47 191 57 79 6 181 19 228 29 116 25 124 25 159 -5z"/>
<path d="M3005 2915 c-236 -188 -431 -347 -432 -352 -4 -11 855 -708 863 -701
2 3 3 318 2 700 l-3 695 -430 -342z"/>
</g>
</svg>
